# xmcd
#
# Track frame offsets: 
#        150
#        20337
#        34890
#        46927
#        67155
#        82910
#        99420
#        114142
#        127167
#        140630
#
# Disc length: 2049 seconds
#
# Revision: 0
# Processed by: cddbd v1.5.1PL2 Copyright (c) Steve Scherf et al.
# Submitted via: ExactAudioCopy v0.95b4
#
DISCID=8307ff0a
DTITLE=Walter Hyatt - King Tears
DYEAR=1990
DGENRE=Blues
TTITLE0=Tell Me Baby
TTITLE1=Blind Love Blues
TTITLE2=This Time, Lucille
TTITLE3=Ruby
TTITLE4=Outside Looking In
TTITLE5=Que Reste-T-Il De Nos Amours?
TTITLE6=In November
TTITLE7=Situe
TTITLE8=King Tears
TTITLE9=Aloha
EXTD=
EXTT0=
EXTT1=
EXTT2=
EXTT3=
EXTT4=
EXTT5=
EXTT6=
EXTT7=
EXTT8=
EXTT9=
PLAYORDER=
